<?xml version="1.0" standalone="no"?>
<!DOCTYPE svg PUBLIC "-//W3C//DTD SVG 20010904//EN"
 "http://www.w3.org/TR/2001/REC-SVG-20010904/DTD/svg10.dtd">
<svg version="1.0" xmlns="http://www.w3.org/2000/svg"
 width="180.000000pt" height="180.000000pt" viewBox="0 0 180.000000 180.000000"
 preserveAspectRatio="xMidYMid meet">
<metadata>
Created by potrace 1.14, written by Peter Selinger 2001-2017
</metadata>
<g transform="translate(0.000000,180.000000) scale(0.100000,-0.100000)"
fill="#000000" stroke="none">
<path d="M788 1795 c-2 -2 -23 -7 -45 -9 -23 -3 -82 -19 -131 -35 -278 -93
-490 -315 -578 -608 -24 -79 -27 -104 -27 -238 0 -122 4 -165 22 -230 81 -301
298 -531 596 -630 100 -34 150 -40 300 -39 87 1 142 8 200 23 303 81 543 309
635 606 30 97 35 141 34 280 -2 339 -186 634 -491 788 -125 62 -238 89 -389
93 -67 2 -124 1 -126 -1z m552 -200 c108 -18 180 -66 180 -121 0 -33 -26 -94
-53 -122 -25 -27 -89 -66 -127 -77 -24 -8 -23 -7 8 29 62 71 32 128 -76 142
-168 21 -749 -86 -880 -162 -23 -14 -60 -44 -82 -66 -45 -47 -45 -48 -26 43
30 141 90 214 203 249 111 34 375 73 628 93 50 4 179 -1 225 -8z m-420 -211
c64 -26 63 -44 -14 -223 -20 -46 -35 -85 -33 -87 1 -2 23 2 47 8 49 11 275 16
286 6 14 -15 -9 -93 -36 -120 -24 -23 -37 -28 -78 -28 -61 0 -213 -26 -255
-44 -31 -13 -33 -18 -90 -217 -31 -112 -66 -247 -78 -299 -36 -167 -37 -170
-65 -170 -28 0 -94 31 -113 53 -21 26 -24 81 -7 146 13 51 91 259 147 390 9
21 8 23 -13 17 -13 -4 -44 -9 -69 -13 -43 -5 -48 -3 -64 21 -15 22 -16 36 -9
74 l9 47 95 36 c52 21 104 41 114 46 13 6 35 56 75 173 31 91 60 173 63 183 9
21 36 22 88 1z"/>
</g>
</svg>
